<?xml version="1.0" standalone="no"?>
<!DOCTYPE svg PUBLIC "-//W3C//DTD SVG 20010904//EN"
 "http://www.w3.org/TR/2001/REC-SVG-20010904/DTD/svg10.dtd">
<svg version="1.0" xmlns="http://www.w3.org/2000/svg"
 width="500.000000pt" height="500.000000pt" viewBox="0 0 500.000000 500.000000"
 preserveAspectRatio="xMidYMid meet">

<g transform="translate(0.000000,500.000000) scale(0.100000,-0.100000)"
fill="#000000" stroke="none">
<path d="M940 4083 c-14 -2 -47 -11 -75 -20 -210 -66 -325 -218 -325 -428 0
-124 36 -218 118 -306 71 -77 151 -129 360 -233 211 -105 280 -150 321 -212
43 -66 54 -114 49 -224 -6 -150 -56 -232 -178 -292 -38 -19 -62 -22 -160 -23
-99 0 -121 3 -155 22 -116 62 -176 182 -192 381 l-6 82 -31 0 c-42 0 -105 -38
-133 -79 -18 -27 -23 -48 -23 -99 0 -150 126 -275 317 -312 36 -7 125 -10 228
-8 153 3 177 6 242 30 183 67 287 190 314 372 22 144 -18 279 -107 370 -77 78
-111 98 -427 251 -134 65 -167 85 -221 138 -67 66 -89 112 -102 214 -8 62 10
172 36 223 54 106 210 164 350 130 99 -24 170 -124 185 -262 17 -150 12 -138
53 -138 46 0 119 36 145 71 24 34 32 98 17 143 -28 86 -156 171 -302 201 -70
14 -236 18 -298 8z"/>
<path d="M3330 3921 c0 -5 26 -11 58 -13 68 -5 108 -23 136 -61 21 -28 21 -34
21 -720 0 -763 3 -732 -63 -770 -17 -10 -59 -21 -92 -24 -33 -3 -60 -9 -60
-14 0 -4 278 -7 618 -6 l617 2 6 60 c12 112 19 425 10 425 -5 0 -12 -33 -16
-72 -24 -266 -78 -352 -243 -387 -30 -6 -151 -11 -281 -11 l-229 0 -5 28 c-3
15 -5 349 -4 742 2 675 3 717 20 744 24 36 90 66 150 66 26 0 47 5 47 10 0 6
-122 10 -345 10 -192 0 -345 -4 -345 -9z"/>
<path d="M1730 3171 c0 -5 30 -11 66 -14 36 -4 80 -15 98 -25 60 -35 61 -41
64 -439 l3 -363 134 0 134 0 3 368 c3 331 5 371 21 395 25 38 71 59 144 65 35
2 63 8 63 13 0 4 -164 7 -365 7 -201 0 -365 -3 -365 -7z"/>
<path d="M2740 3170 c0 -5 3 -10 8 -10 104 -4 200 -27 213 -53 17 -31 3 -84
-37 -139 -20 -28 -145 -172 -278 -321 -132 -148 -249 -280 -259 -293 l-19 -24
156 0 c86 0 156 3 156 7 0 3 -27 46 -60 94 l-61 88 224 248 c123 136 245 267
271 291 50 46 136 92 173 92 12 0 28 3 37 6 48 19 -9 24 -254 24 -173 0 -270
-4 -270 -10z"/>
<path d="M1958 1699 c-5 -110 -9 -136 -25 -158 -30 -40 -77 -62 -143 -68 -33
-3 -60 -10 -60 -14 0 -5 164 -9 365 -9 201 0 365 4 365 9 0 4 -29 11 -65 13
-36 3 -78 14 -97 25 -52 30 -63 62 -66 206 l-4 127 -132 0 -133 0 -5 -131z"/>
<path d="M2710 1824 c0 -9 128 -193 168 -241 44 -53 129 -98 207 -112 97 -16
285 -25 285 -13 0 6 -13 13 -29 17 -57 12 -140 104 -274 299 l-38 56 -160 0
c-87 0 -159 -3 -159 -6z"/>
</g>
</svg>
